<?xml version="1.0" ?><svg viewBox="0 0 24 24" xmlns="http://www.w3.org/2000/svg"><defs><style>.cls-1,.cls-2{fill:none;}.cls-2{stroke:#000;stroke-linecap:round;stroke-linejoin:round;}</style></defs><g data-name="Layer 2" id="Layer_2"><g id="Workspace"><rect class="cls-1" height="24" width="24"/><path class="cls-2" d="M12,12s1.54,2.67,1.54,4.33A1.61,1.61,0,0,1,12,18a1.61,1.61,0,0,1-1.54-1.67C10.46,14.67,12,12,12,12Z"/><path class="cls-2" d="M13.31,15H16a3,3,0,0,0,0-6H16A3.48,3.48,0,0,0,9,9.19,2.94,2.94,0,0,0,8,9a3,3,0,0,0,0,6h2.69"/></g></g></svg>