<?xml version="1.0" ?><svg height="60px" version="1.1" viewBox="0 0 60 60" width="60px" xmlns="http://www.w3.org/2000/svg" xmlns:xlink="http://www.w3.org/1999/xlink"><title/><desc/><defs/><g fill="none" fill-rule="evenodd" id="People" stroke="none" stroke-width="1"><g fill="#000000" id="Icon-31"><path d="M25.8945,48.5527 C25.6475,48.0597 25.0465,47.8597 24.5525,48.1057 C24.0585,48.3527 23.8585,48.9527 24.1055,49.4477 L25.1055,51.4477 C25.2805,51.7977 25.6335,51.9997 26.0005,51.9997 C26.1505,51.9997 26.3035,51.9657 26.4475,51.8947 C26.9415,51.6477 27.1415,51.0467 26.8945,50.5527 L25.8945,48.5527 Z M25.8945,54.5527 C25.6475,54.0597 25.0465,53.8597 24.5525,54.1057 C24.0585,54.3527 23.8585,54.9527 24.1055,55.4477 L25.1055,57.4477 C25.2805,57.7977 25.6335,57.9997 26.0005,57.9997 C26.1505,57.9997 26.3035,57.9657 26.4475,57.8947 C26.9415,57.6477 27.1415,57.0467 26.8945,56.5527 L25.8945,54.5527 Z M19.8945,44.5527 C19.6475,44.0587 19.0475,43.8597 18.5525,44.1057 C18.0585,44.3527 17.8585,44.9527 18.1055,45.4477 L19.1055,47.4477 C19.2805,47.7977 19.6335,47.9997 20.0005,47.9997 C20.1505,47.9997 20.3035,47.9657 20.4475,47.8947 C20.9415,47.6477 21.1415,47.0467 20.8945,46.5527 L19.8945,44.5527 Z M19.8945,50.5527 C19.6475,50.0587 19.0475,49.8597 18.5525,50.1057 C18.0585,50.3527 17.8585,50.9527 18.1055,51.4477 L19.1055,53.4477 C19.2805,53.7977 19.6335,53.9997 20.0005,53.9997 C20.1505,53.9997 20.3035,53.9657 20.4475,53.8947 C20.9415,53.6477 21.1415,53.0467 20.8945,52.5527 L19.8945,50.5527 Z M31.8945,56.5527 C31.6475,56.0597 31.0485,55.8607 30.5525,56.1057 C30.0585,56.3527 29.8585,56.9527 30.1055,57.4477 L31.1055,59.4477 C31.2805,59.7977 31.6335,59.9997 32.0005,59.9997 C32.1505,59.9997 32.3035,59.9657 32.4475,59.8947 C32.9415,59.6477 33.1415,59.0467 32.8945,58.5527 L31.8945,56.5527 Z M19.8945,56.5527 C19.6475,56.0597 19.0475,55.8607 18.5525,56.1057 C18.0585,56.3527 17.8585,56.9527 18.1055,57.4477 L19.1055,59.4477 C19.2805,59.7977 19.6335,59.9997 20.0005,59.9997 C20.1505,59.9997 20.3035,59.9657 20.4475,59.8947 C20.9415,59.6477 21.1415,59.0467 20.8945,58.5527 L19.8945,56.5527 Z M3.8355,13.8007 L5.6835,14.5667 C5.8085,14.6177 5.9385,14.6427 6.0655,14.6427 C6.4585,14.6427 6.8305,14.4097 6.9905,14.0257 C7.2015,13.5157 6.9595,12.9297 6.4495,12.7187 L4.6015,11.9527 C4.0905,11.7407 3.5065,11.9847 3.2945,12.4937 C3.0835,13.0037 3.3255,13.5897 3.8355,13.8007 L3.8355,13.8007 Z M23.9745,6.9897 C24.0995,7.0407 24.2295,7.0657 24.3565,7.0657 C24.7495,7.0657 25.1215,6.8327 25.2815,6.4487 L26.0465,4.6007 C26.2585,4.0907 26.0165,3.5057 25.5055,3.2937 C24.9955,3.0817 24.4115,3.3247 24.1995,3.8347 L23.4335,5.6827 C23.2225,6.1927 23.4645,6.7777 23.9745,6.9897 L23.9745,6.9897 Z M12.7185,6.4487 C12.8785,6.8337 13.2505,7.0667 13.6435,7.0667 C13.7705,7.0667 13.8995,7.0417 14.0255,6.9897 C14.5355,6.7797 14.7775,6.1947 14.5665,5.6837 L13.8005,3.8347 C13.5885,3.3247 13.0045,3.0817 12.4945,3.2937 C11.9835,3.5047 11.7415,4.0897 11.9535,4.6007 L12.7185,6.4487 Z M0.9995,20.0007 L4.9995,19.9997 C5.5525,19.9997 5.9995,19.5517 5.9995,18.9997 C5.9995,18.4477 5.5525,17.9997 4.9995,17.9997 L0.9995,18.0007 C0.4475,18.0007 -0.0005,18.4487 -0.0005,19.0007 C-0.0005,19.5537 0.4475,20.0007 0.9995,20.0007 L0.9995,20.0007 Z M8.3935,9.8087 C8.5885,10.0037 8.8445,10.1017 9.1005,10.1017 C9.3565,10.1017 9.6125,10.0037 9.8075,9.8087 C10.1985,9.4177 10.1985,8.7847 9.8075,8.3947 L6.9785,5.5657 C6.5875,5.1747 5.9555,5.1747 5.5645,5.5657 C5.1735,5.9557 5.1735,6.5887 5.5645,6.9797 L8.3935,9.8087 Z M18.9995,5.9997 C19.5525,5.9997 19.9995,5.5527 19.9995,4.9997 L19.9995,0.9997 C19.9995,0.4477 19.5525,-0.0003 18.9995,-0.0003 C18.4475,-0.0003 17.9995,0.4477 17.9995,0.9997 L17.9995,4.9997 C17.9995,5.5527 18.4475,5.9997 18.9995,5.9997 L18.9995,5.9997 Z M28.8995,10.1017 C29.1555,10.1017 29.4115,10.0037 29.6065,9.8087 L32.4355,6.9797 C32.8265,6.5887 32.8265,5.9557 32.4355,5.5657 C32.0445,5.1747 31.4125,5.1747 31.0215,5.5657 L28.1925,8.3947 C27.8015,8.7847 27.8015,9.4177 28.1925,9.8087 C28.3875,10.0037 28.6435,10.1017 28.8995,10.1017 L28.8995,10.1017 Z M9.0025,17.9637 C9.0705,17.9777 9.1375,17.9847 9.2045,17.9847 C9.6695,17.9847 10.0855,17.6577 10.1825,17.1847 C11.0355,13.0217 14.7435,9.9997 18.9995,9.9997 C20.9685,10.0007 22.8375,10.6247 24.4055,11.8047 C24.8475,12.1377 25.4745,12.0477 25.8055,11.6077 C26.1385,11.1657 26.0495,10.5387 25.6075,10.2067 C23.6905,8.7637 21.4055,8.0007 18.9995,7.9997 C13.7975,7.9997 9.2655,11.6947 8.2235,16.7837 C8.1125,17.3247 8.4615,17.8537 9.0025,17.9637 L9.0025,17.9637 Z M30.9995,49.9997 L40.9625,49.9997 C44.8225,49.9997 47.9625,46.8597 47.9625,42.9997 C47.9625,39.1407 44.8225,35.9997 40.9625,35.9997 C37.1025,35.9997 33.9625,39.1407 33.9625,42.9997 C33.9625,43.5527 34.4105,43.9997 34.9625,43.9997 C35.5155,43.9997 35.9625,43.5527 35.9625,42.9997 C35.9625,40.2427 38.2065,37.9997 40.9625,37.9997 C43.7195,37.9997 45.9625,40.2427 45.9625,42.9997 C45.9625,45.7567 43.7195,47.9997 40.9625,47.9997 L30.9995,47.9997 C30.4475,47.9997 29.9995,48.4477 29.9995,48.9997 C29.9995,49.5527 30.4475,49.9997 30.9995,49.9997 L30.9995,49.9997 Z M57.9625,37.9997 C57.9625,40.5617 56.9955,42.9977 55.2375,44.8607 C54.8585,45.2627 54.8765,45.8957 55.2785,46.2747 C55.4715,46.4557 55.7185,46.5467 55.9645,46.5467 C56.2305,46.5467 56.4955,46.4417 56.6925,46.2337 C58.8015,43.9977 59.9625,41.0737 59.9625,37.9997 C59.9625,34.1097 58.0625,30.4437 54.8795,28.1937 C54.4285,27.8727 53.8045,27.9827 53.4865,28.4327 C53.1675,28.8837 53.2745,29.5077 53.7255,29.8257 C56.3785,31.7017 57.9625,34.7577 57.9625,37.9997 L57.9625,37.9997 Z M53.9625,47.9997 L48.9625,47.9997 C48.4105,47.9997 47.9625,48.4477 47.9625,48.9997 C47.9625,49.5527 48.4105,49.9997 48.9625,49.9997 L53.9625,49.9997 C56.1685,49.9997 57.9625,51.7937 57.9625,53.9997 C57.9625,56.2057 56.1685,57.9997 53.9625,57.9997 C52.8805,57.9997 51.8665,57.5737 51.1075,56.8007 C50.7205,56.4067 50.0865,56.4007 49.6935,56.7867 C49.2985,57.1737 49.2925,57.8067 49.6795,58.2007 C50.8175,59.3617 52.3385,59.9997 53.9625,59.9997 C57.2715,59.9997 59.9625,57.3087 59.9625,53.9997 C59.9625,50.6917 57.2715,47.9997 53.9625,47.9997 L53.9625,47.9997 Z M43.9625,51.9997 L36.9995,51.9997 C36.4475,51.9997 35.9995,52.4477 35.9995,52.9997 C35.9995,53.5527 36.4475,53.9997 36.9995,53.9997 L43.9625,53.9997 C45.0655,53.9997 45.9625,54.8977 45.9625,55.9997 C45.9625,57.1027 45.0655,57.9997 43.9625,57.9997 C43.4275,57.9997 42.9245,57.7917 42.5475,57.4137 C42.1575,57.0227 41.5245,57.0237 41.1335,57.4117 C40.7425,57.8027 40.7415,58.4357 41.1325,58.8257 C41.8875,59.5827 42.8925,59.9997 43.9625,59.9997 C46.1685,59.9997 47.9625,58.2057 47.9625,55.9997 C47.9625,53.7937 46.1685,51.9997 43.9625,51.9997 L43.9625,51.9997 Z M8.9995,47.9997 L7.9995,47.9997 C4.6915,47.9997 1.9995,45.3087 1.9995,41.9997 C1.9995,38.6917 4.6915,35.9997 7.9995,35.9997 C8.5525,35.9997 8.9995,35.5527 8.9995,34.9997 C8.9995,34.4477 8.5525,33.9997 7.9995,33.9997 C3.5885,33.9997 -0.0005,37.5887 -0.0005,41.9997 C-0.0005,46.4107 3.5885,49.9997 7.9995,49.9997 L8.9995,49.9997 C10.8185,49.9997 12.1305,50.5547 13.0515,53.3167 C13.1905,53.7357 13.5815,53.9997 13.9995,53.9997 C14.1045,53.9997 14.2115,53.9837 14.3165,53.9487 C14.8405,53.7747 15.1235,53.2077 14.9485,52.6837 C13.8695,49.4447 12.0345,47.9997 8.9995,47.9997 L8.9995,47.9997 Z M22.7065,17.0927 C22.3985,17.5517 22.5205,18.1727 22.9795,18.4807 C23.4385,18.7887 24.0595,18.6657 24.3675,18.2077 C26.9775,14.3207 31.3125,11.9997 35.9625,11.9997 C43.6825,11.9997 49.9625,18.2807 49.9625,25.9997 C49.9625,27.2687 49.7935,28.5247 49.4595,29.7337 C49.3125,30.2667 49.6255,30.8177 50.1575,30.9637 C50.2465,30.9887 50.3365,30.9997 50.4245,30.9997 C50.8625,30.9997 51.2655,30.7087 51.3875,30.2667 C51.7695,28.8837 51.9625,27.4487 51.9625,25.9997 C51.9625,17.1777 44.7855,9.9997 35.9625,9.9997 C30.6445,9.9997 25.6895,12.6517 22.7065,17.0927 L22.7065,17.0927 Z M24.6525,23.1347 C24.2535,23.5157 23.6205,23.5007 23.2395,23.1017 C21.3325,21.1017 18.7615,19.9997 15.9995,19.9997 C10.4855,19.9997 5.9995,24.4867 5.9995,29.9997 C5.9995,30.6157 6.0555,31.2297 6.1655,31.8257 C6.2665,32.3687 5.9075,32.8907 5.3645,32.9907 C5.3025,33.0027 5.2415,33.0077 5.1815,33.0077 C4.7085,33.0077 4.2885,32.6707 4.1995,32.1897 C4.0665,31.4737 3.9995,30.7377 3.9995,29.9997 C3.9995,23.3827 9.3835,17.9997 15.9995,17.9997 C19.3135,17.9997 22.3985,19.3217 24.6865,21.7207 C25.0675,22.1207 25.0525,22.7537 24.6525,23.1347 L24.6525,23.1347 Z" id="crazy-weather"/></g></g></svg>